<?xml version="1.0" encoding="UTF-8" standalone="no"?>
<!DOCTYPE svg PUBLIC "-//W3C//DTD SVG 1.1//EN" "http://www.w3.org/Graphics/SVG/1.1/DTD/svg11.dtd">
<svg width="100%" height="100%" viewBox="0 0 889 161" version="1.1" xmlns="http://www.w3.org/2000/svg" xmlns:xlink="http://www.w3.org/1999/xlink" xml:space="preserve" xmlns:serif="http://www.serif.com/" style="fill-rule:evenodd;clip-rule:evenodd;stroke-linejoin:round;stroke-miterlimit:2;">
    <g transform="matrix(1,0,0,1,-1464.4,-1114.73)">
        <g transform="matrix(0.923349,0,0,0.923349,969.736,96.2943)">
            <g>
                <path d="M782.263,1275L782.263,1123.97L753.507,1123.97L753.507,1102.98L834.593,1102.98L834.593,1123.97L805.319,1123.97L805.319,1275L782.263,1275Z" style="fill:rgb(35,31,32);fill-rule:nonzero;"/>
                <path d="M834.334,1275L834.334,1150.65L855.059,1150.65L855.837,1171.89L856.873,1171.89C859.291,1164.64 862.745,1159.03 867.235,1155.05C871.726,1151.08 877.252,1149.1 883.815,1149.1C887.442,1149.1 890.896,1149.96 894.178,1151.69L894.178,1172.15C891.587,1170.42 887.701,1169.56 882.52,1169.56C875.612,1169.56 870.085,1171.63 865.94,1175.78C861.795,1179.92 858.686,1187.52 856.614,1198.58L856.614,1275L834.334,1275Z" style="fill:rgb(35,31,32);fill-rule:nonzero;"/>
                <path d="M956.612,1206.61C954.021,1208.51 951.603,1209.8 949.358,1210.49C947.113,1211.18 943.572,1212.22 938.736,1213.6C931.483,1215.85 926.82,1218.35 924.747,1221.12C922.675,1223.88 921.638,1227.68 921.638,1232.51L921.638,1243.65C921.638,1252.46 926.56,1256.87 936.405,1256.87C941.586,1256.87 945.774,1255.66 948.969,1253.24C952.164,1250.82 954.712,1247.11 956.612,1242.1L956.612,1206.61ZM958.166,1275L957.389,1259.2L956.353,1259.2C953.589,1264.03 950.006,1268.13 945.602,1271.5C941.197,1274.87 934.937,1276.55 926.82,1276.55C916.975,1276.55 909.98,1274.05 905.835,1269.04C901.69,1264.03 899.618,1257.3 899.618,1248.84L899.618,1236.4C899.618,1231.05 900.222,1226.43 901.431,1222.54C902.64,1218.65 904.54,1215.37 907.131,1212.7C909.721,1210.02 913.132,1207.69 917.364,1205.7C921.595,1203.71 926.733,1201.86 932.778,1200.13C935.541,1199.27 938.348,1198.45 941.197,1197.67C944.047,1196.89 946.595,1196.03 948.84,1195.08C951.085,1194.13 952.898,1192.96 954.28,1191.58C955.662,1190.2 956.353,1188.47 956.353,1186.4L956.353,1181.22C956.353,1172.76 950.999,1168.53 940.291,1168.53C928.547,1168.53 922.675,1173.19 922.675,1182.52L922.675,1190.55L901.69,1190.55L901.69,1179.92C901.69,1169.56 905.188,1161.83 912.183,1156.74C919.177,1151.64 928.978,1149.1 941.586,1149.1C966.283,1149.1 978.632,1158.77 978.632,1178.11L978.632,1275L958.166,1275Z" style="fill:rgb(35,31,32);fill-rule:nonzero;"/>
                <path d="M1048.84,1228.89L1070.08,1228.89L1070.08,1237.69C1070.08,1250.65 1067.1,1260.36 1061.14,1266.84C1055.18,1273.32 1045.47,1276.55 1032,1276.55C1018.87,1276.55 1009.16,1273.4 1002.85,1267.1C996.55,1260.8 993.398,1250.99 993.398,1237.69L993.398,1187.95C993.398,1174.83 996.55,1165.07 1002.85,1158.68C1009.16,1152.29 1018.96,1149.1 1032.26,1149.1C1045.56,1149.1 1055.18,1152.29 1061.14,1158.68C1067.1,1165.07 1070.08,1174.83 1070.08,1187.95L1070.08,1196.25L1049.1,1196.25L1049.1,1187.95C1049.1,1175.52 1043.48,1169.3 1032.26,1169.3C1020.86,1169.3 1015.16,1175.52 1015.16,1187.95L1015.16,1237.69C1015.16,1250.13 1020.77,1256.35 1032,1256.35C1043.22,1256.35 1048.84,1250.13 1048.84,1237.69L1048.84,1228.89Z" style="fill:rgb(35,31,32);fill-rule:nonzero;"/>
                <path d="M1163.08,1237.69C1163.08,1263.6 1149.96,1276.55 1123.71,1276.55C1110.58,1276.55 1100.87,1273.4 1094.56,1267.1C1088.26,1260.8 1085.11,1250.99 1085.11,1237.69L1085.11,1187.95C1085.11,1174.83 1088.26,1165.07 1094.56,1158.68C1100.87,1152.29 1110.67,1149.1 1123.97,1149.1C1150.05,1149.1 1163.08,1162.05 1163.08,1187.95L1163.08,1218.78L1106.87,1218.78L1106.87,1238.21C1106.87,1250.65 1112.48,1256.87 1123.71,1256.87C1135.28,1256.87 1141.06,1250.65 1141.06,1238.21L1141.06,1232L1163.08,1232L1163.08,1237.69ZM1141.06,1187.44C1141.06,1175 1135.36,1168.79 1123.97,1168.79C1112.57,1168.79 1106.87,1175 1106.87,1187.44L1106.87,1202.2L1141.06,1202.2L1141.06,1187.44Z" style="fill:rgb(35,31,32);fill-rule:nonzero;"/>
                <g>
                    <path d="M1177.59,1275L1177.59,1102.98L1241.06,1102.98L1241.06,1123.97L1200.91,1123.97L1200.91,1176.82L1235.62,1176.82L1235.62,1197.54L1200.91,1197.54L1200.91,1275L1177.59,1275Z" style="fill:rgb(53,186,144);fill-rule:nonzero;"/>
                    <rect x="1253.5" y="1100.91" width="22.279" height="174.09" style="fill:rgb(53,186,144);fill-rule:nonzero;"/>
                    <path d="M1368.52,1237.69C1368.52,1251.17 1365.37,1261.01 1359.07,1267.23C1352.76,1273.45 1342.96,1276.55 1329.66,1276.55C1316.36,1276.55 1306.56,1273.45 1300.26,1267.23C1293.95,1261.01 1290.8,1251.17 1290.8,1237.69L1290.8,1187.95C1290.8,1174.48 1293.95,1164.64 1300.26,1158.42C1306.56,1152.2 1316.36,1149.1 1329.66,1149.1C1342.96,1149.1 1352.76,1152.2 1359.07,1158.42C1365.37,1164.64 1368.52,1174.48 1368.52,1187.95L1368.52,1237.69ZM1346.76,1187.95C1346.76,1175.52 1341.06,1169.3 1329.66,1169.3C1318.26,1169.3 1312.56,1175.52 1312.56,1187.95L1312.56,1237.69C1312.56,1250.13 1318.26,1256.35 1329.66,1256.35C1341.06,1256.35 1346.76,1250.13 1346.76,1237.69L1346.76,1187.95Z" style="fill:rgb(53,186,144);fill-rule:nonzero;"/>
                    <path d="M1393.13,1275L1374.48,1150.65L1395.2,1150.65L1408.67,1243.91L1409.71,1243.91L1424.22,1150.65L1448.57,1150.65L1463.6,1243.91L1464.63,1243.91L1477.85,1150.65L1498.31,1150.65L1479.66,1275L1452.46,1275L1436.91,1179.92L1435.88,1179.92L1420.33,1275L1393.13,1275Z" style="fill:rgb(53,186,144);fill-rule:nonzero;"/>
                </g>
            </g>
        </g>
        <g transform="matrix(0.606774,0,0,0.606774,962.648,537.975)">
            <g>
                <g transform="matrix(0.604744,0,0,1,380.661,0)">
                    <path d="M744.816,1210.49L1183.05,1210.49" style="fill:none;"/>
                </g>
                <g transform="matrix(0.604744,0,0,1,380.661,0)">
                    <rect x="737.927" y="1206.33" width="452.015" height="8.333" style="fill:rgb(53,186,144);"/>
                </g>
                <g transform="matrix(0.631238,0,0,0.359175,321.68,797.945)">
                    <rect x="806.991" y="805.498" width="76.335" height="278.187" style="fill:rgb(53,186,144);"/>
                </g>
                <g transform="matrix(0.631238,0,0,0.659231,393.959,472.779)">
                    <rect x="806.991" y="805.498" width="76.335" height="278.187" style="fill:rgb(53,186,144);"/>
                </g>
                <g transform="matrix(0.631238,0,0,0.359175,466.237,797.945)">
                    <rect x="806.991" y="805.498" width="76.335" height="278.187" style="fill:rgb(53,186,144);"/>
                </g>
                <g transform="matrix(0.631238,0,0,0.862015,538.515,253.025)">
                    <rect x="806.991" y="805.498" width="76.335" height="278.187" style="fill:rgb(53,186,144);"/>
                </g>
            </g>
        </g>
    </g>
</svg>
